<svg width="298" height="72" viewBox="0 0 298 72" fill="none" xmlns="http://www.w3.org/2000/svg">
<g clip-path="url(#clip0_14_10)">
<path d="M146.692 63.2225C146.569 63.2224 146.448 63.2009 146.332 63.1591V34.875C146.448 34.8331 146.569 34.8116 146.692 34.8115C148.458 34.8115 150.093 37.4564 151.177 38.5143L150.933 32.1032C150.933 25.3323 148.966 19.8786 145.814 15.7421C145.242 15.7855 144.668 15.7022 144.133 15.4983C143.597 15.2945 143.113 14.9749 142.715 14.5625L142.355 14.1922C137.791 9.67478 131.492 7.63824 125.273 7.75461C119.053 7.87099 112.855 10.1509 108.587 14.2345L108.238 14.5731C107.797 15.0191 107.254 15.3509 106.656 15.5398C106.057 15.7288 105.422 15.7691 104.805 15.6574C101.632 19.8046 99.6488 25.29 99.6488 32.1296L99.4055 39.477C100.595 38.0435 102.759 34.8961 104.694 34.8115V63.2225C100.564 63.1379 97.5968 56.6263 96.5866 53.426H95V32.1296C94.997 25.1617 97.3931 18.4053 101.785 12.9967C101.576 12.3225 101.553 11.6039 101.721 10.918C101.889 10.2321 102.24 9.60479 102.737 9.10349L103.266 8.60097C108.941 3.17372 117.012 0.158582 125.146 -0.000109072C133.28 -0.1588 141.673 2.59185 147.818 8.70676L148.3 9.1987C148.777 9.69461 149.114 10.3088 149.276 10.9782C149.438 11.6476 149.418 12.3479 149.22 13.0073C153.603 18.4119 155.995 25.1597 155.995 32.119V53.426H154.826C153.826 56.6739 150.838 63.249 146.687 63.249L146.692 63.2225ZM143.757 64.9999H138.997C138.51 64.9999 138.042 64.8067 137.697 64.4626C137.352 64.1185 137.158 63.6517 137.156 63.1644V34.7269C137.158 34.2391 137.352 33.7717 137.697 33.4267C138.042 33.0818 138.509 32.8874 138.997 32.886H143.757V64.9999ZM107.265 32.886H112.453C112.94 32.8888 113.407 33.0837 113.751 33.4283C114.096 33.7729 114.29 34.2395 114.293 34.7269V63.1644C114.29 63.6512 114.095 64.1173 113.751 64.4611C113.406 64.8048 112.94 64.9985 112.453 64.9999H107.238V32.886H107.265Z" fill="url(#paint0_linear_14_10)"/>
</g>
<path d="M37.6208 19.64V24.104H28.7408V53H23.2688V24.104H14.3408V19.64H37.6208ZM48.6345 30.392C49.4345 29.048 50.4905 28.008 51.8025 27.272C53.1465 26.504 54.7305 26.12 56.5545 26.12V31.784H55.1625C53.0185 31.784 51.3865 32.328 50.2665 33.416C49.1785 34.504 48.6345 36.392 48.6345 39.08V53H43.1625V26.552H48.6345V30.392ZM72.9124 39.608L81.4564 53H75.2644L69.5524 44.024L64.1764 53H58.4644L67.0084 39.992L58.4644 26.552H64.6564L70.3684 35.528L75.7444 26.552H81.4564L72.9124 39.608Z" fill="url(#paint1_linear_14_10)"/>
<path d="M199.24 19.64V53H193.768V38.408H178.072V53H172.6V19.64H178.072V33.944H193.768V19.64H199.24ZM230.684 39.128C230.684 40.12 230.62 41.016 230.492 41.816H210.284C210.444 43.928 211.228 45.624 212.636 46.904C214.044 48.184 215.772 48.824 217.82 48.824C220.764 48.824 222.844 47.592 224.06 45.128H229.964C229.164 47.56 227.708 49.56 225.596 51.128C223.516 52.664 220.924 53.432 217.82 53.432C215.292 53.432 213.02 52.872 211.004 51.752C209.02 50.6 207.452 49 206.3 46.952C205.18 44.872 204.62 42.472 204.62 39.752C204.62 37.032 205.164 34.648 206.252 32.6C207.372 30.52 208.924 28.92 210.908 27.8C212.924 26.68 215.228 26.12 217.82 26.12C220.316 26.12 222.54 26.664 224.492 27.752C226.444 28.84 227.964 30.376 229.052 32.36C230.14 34.312 230.684 36.568 230.684 39.128ZM224.972 37.4C224.94 35.384 224.22 33.768 222.812 32.552C221.404 31.336 219.66 30.728 217.58 30.728C215.692 30.728 214.076 31.336 212.732 32.552C211.388 33.736 210.588 35.352 210.332 37.4H224.972ZM234.245 39.656C234.245 37 234.789 34.648 235.877 32.6C236.997 30.552 238.501 28.968 240.389 27.848C242.309 26.696 244.421 26.12 246.725 26.12C248.805 26.12 250.613 26.536 252.149 27.368C253.717 28.168 254.965 29.176 255.893 30.392V26.552H261.413V53H255.893V49.064C254.965 50.312 253.701 51.352 252.101 52.184C250.501 53.016 248.677 53.432 246.629 53.432C244.357 53.432 242.277 52.856 240.389 51.704C238.501 50.52 236.997 48.888 235.877 46.808C234.789 44.696 234.245 42.312 234.245 39.656ZM255.893 39.752C255.893 37.928 255.509 36.344 254.741 35C254.005 33.656 253.029 32.632 251.813 31.928C250.597 31.224 249.285 30.872 247.877 30.872C246.469 30.872 245.157 31.224 243.941 31.928C242.725 32.6 241.733 33.608 240.965 34.952C240.229 36.264 239.861 37.832 239.861 39.656C239.861 41.48 240.229 43.08 240.965 44.456C241.733 45.832 242.725 46.888 243.941 47.624C245.189 48.328 246.501 48.68 247.877 48.68C249.285 48.68 250.597 48.328 251.813 47.624C253.029 46.92 254.005 45.896 254.741 44.552C255.509 43.176 255.893 41.576 255.893 39.752ZM266.776 39.656C266.776 37 267.32 34.648 268.408 32.6C269.528 30.552 271.032 28.968 272.92 27.848C274.84 26.696 276.968 26.12 279.304 26.12C281.032 26.12 282.728 26.504 284.392 27.272C286.088 28.008 287.432 29 288.424 30.248V17.48H293.944V53H288.424V49.016C287.528 50.296 286.28 51.352 284.68 52.184C283.112 53.016 281.304 53.432 279.256 53.432C276.952 53.432 274.84 52.856 272.92 51.704C271.032 50.52 269.528 48.888 268.408 46.808C267.32 44.696 266.776 42.312 266.776 39.656ZM288.424 39.752C288.424 37.928 288.04 36.344 287.272 35C286.536 33.656 285.56 32.632 284.344 31.928C283.128 31.224 281.816 30.872 280.408 30.872C279 30.872 277.688 31.224 276.472 31.928C275.256 32.6 274.264 33.608 273.496 34.952C272.76 36.264 272.392 37.832 272.392 39.656C272.392 41.48 272.76 43.08 273.496 44.456C274.264 45.832 275.256 46.888 276.472 47.624C277.72 48.328 279.032 48.68 280.408 48.68C281.816 48.68 283.128 48.328 284.344 47.624C285.56 46.92 286.536 45.896 287.272 44.552C288.04 43.176 288.424 41.576 288.424 39.752Z" fill="url(#paint2_linear_14_10)"/>
<defs>
<linearGradient id="paint0_linear_14_10" x1="125.497" y1="-0.0065918" x2="125.497" y2="64.9999" gradientUnits="userSpaceOnUse">
<stop stop-color="white"/>
<stop offset="0.104167" stop-color="#9B9B9B"/>
<stop offset="0.234375" stop-color="white"/>
<stop offset="0.5" stop-color="#717171" stop-opacity="0.605442"/>
<stop offset="0.760417" stop-color="#EFEFEF" stop-opacity="0.94"/>
<stop offset="0.9999" stop-color="white" stop-opacity="0.884921"/>
<stop offset="1" stop-color="white"/>
</linearGradient>
<linearGradient id="paint1_linear_14_10" x1="41" y1="0" x2="41" y2="72" gradientUnits="userSpaceOnUse">
<stop stop-color="white"/>
<stop offset="1" stop-color="white" stop-opacity="0"/>
</linearGradient>
<linearGradient id="paint2_linear_14_10" x1="233.5" y1="0" x2="233.5" y2="72" gradientUnits="userSpaceOnUse">
<stop stop-color="white"/>
<stop offset="1" stop-color="white" stop-opacity="0"/>
</linearGradient>
<clipPath id="clip0_14_10">
<rect width="61" height="65" fill="white" transform="translate(95)"/>
</clipPath>
</defs>
</svg>
